<mxfile host="app.diagrams.net" agent="Mozilla/5.0 (Windows NT 10.0; Win64; x64) AppleWebKit/537.36 (KHTML, like Gecko) Chrome/133.0.0.0 Safari/537.36 Edg/133.0.0.0" version="26.0.11">
  <diagram name="Page-1" id="_d_WlXC_72ZoclP-3qGc">
    <mxGraphModel dx="1188" dy="651" grid="1" gridSize="10" guides="1" tooltips="1" connect="1" arrows="1" fold="1" page="1" pageScale="1" pageWidth="3300" pageHeight="4681" math="0" shadow="0">
      <root>
        <mxCell id="0" />
        <mxCell id="1" parent="0" />
        <mxCell id="RwnTMnq1plcqQNdyINEq-1" value="" style="rounded=0;whiteSpace=wrap;html=1;" vertex="1" parent="1">
          <mxGeometry x="360" y="340" width="720" height="60" as="geometry" />
        </mxCell>
        <mxCell id="RwnTMnq1plcqQNdyINEq-2" value="" style="rounded=0;whiteSpace=wrap;html=1;" vertex="1" parent="1">
          <mxGeometry x="360" y="340" width="270" height="60" as="geometry" />
        </mxCell>
        <mxCell id="RwnTMnq1plcqQNdyINEq-3" value="" style="rounded=0;whiteSpace=wrap;html=1;" vertex="1" parent="1">
          <mxGeometry x="630" y="340" width="165" height="60" as="geometry" />
        </mxCell>
        <mxCell id="RwnTMnq1plcqQNdyINEq-4" value="" style="rounded=0;whiteSpace=wrap;html=1;" vertex="1" parent="1">
          <mxGeometry x="795" y="340" width="215" height="60" as="geometry" />
        </mxCell>
        <mxCell id="RwnTMnq1plcqQNdyINEq-5" value="len" style="rounded=0;whiteSpace=wrap;html=1;" vertex="1" parent="1">
          <mxGeometry x="360" y="340" width="30" height="60" as="geometry" />
        </mxCell>
        <mxCell id="RwnTMnq1plcqQNdyINEq-6" value="type" style="rounded=0;whiteSpace=wrap;html=1;" vertex="1" parent="1">
          <mxGeometry x="390" y="340" width="30" height="60" as="geometry" />
        </mxCell>
        <mxCell id="RwnTMnq1plcqQNdyINEq-7" value="len" style="rounded=0;whiteSpace=wrap;html=1;" vertex="1" parent="1">
          <mxGeometry x="630" y="340" width="30" height="60" as="geometry" />
        </mxCell>
        <mxCell id="RwnTMnq1plcqQNdyINEq-8" value="type" style="rounded=0;whiteSpace=wrap;html=1;" vertex="1" parent="1">
          <mxGeometry x="660" y="340" width="30" height="60" as="geometry" />
        </mxCell>
        <mxCell id="RwnTMnq1plcqQNdyINEq-9" value="len" style="rounded=0;whiteSpace=wrap;html=1;" vertex="1" parent="1">
          <mxGeometry x="795" y="340" width="30" height="60" as="geometry" />
        </mxCell>
        <mxCell id="RwnTMnq1plcqQNdyINEq-10" value="type" style="rounded=0;whiteSpace=wrap;html=1;" vertex="1" parent="1">
          <mxGeometry x="825" y="340" width="30" height="60" as="geometry" />
        </mxCell>
        <mxCell id="RwnTMnq1plcqQNdyINEq-17" value="" style="shape=curlyBracket;whiteSpace=wrap;html=1;rounded=1;labelPosition=left;verticalLabelPosition=middle;align=right;verticalAlign=middle;rotation=-90;" vertex="1" parent="1">
          <mxGeometry x="485" y="290" width="20" height="270" as="geometry" />
        </mxCell>
        <mxCell id="RwnTMnq1plcqQNdyINEq-18" value="" style="shape=curlyBracket;whiteSpace=wrap;html=1;rounded=1;labelPosition=left;verticalLabelPosition=middle;align=right;verticalAlign=middle;rotation=90;" vertex="1" parent="1">
          <mxGeometry x="365" y="310" width="20" height="30" as="geometry" />
        </mxCell>
        <mxCell id="RwnTMnq1plcqQNdyINEq-19" value="" style="shape=curlyBracket;whiteSpace=wrap;html=1;rounded=1;labelPosition=left;verticalLabelPosition=middle;align=right;verticalAlign=middle;rotation=90;" vertex="1" parent="1">
          <mxGeometry x="387.5" y="302.5" width="35" height="30" as="geometry" />
        </mxCell>
        <mxCell id="RwnTMnq1plcqQNdyINEq-21" value="1字节" style="text;html=1;align=center;verticalAlign=middle;whiteSpace=wrap;rounded=0;" vertex="1" parent="1">
          <mxGeometry x="345" y="290" width="60" height="30" as="geometry" />
        </mxCell>
        <mxCell id="RwnTMnq1plcqQNdyINEq-22" value="1字节" style="text;html=1;align=center;verticalAlign=middle;whiteSpace=wrap;rounded=0;" vertex="1" parent="1">
          <mxGeometry x="375" y="280" width="60" height="30" as="geometry" />
        </mxCell>
        <mxCell id="RwnTMnq1plcqQNdyINEq-23" value="该描述符占 { len } 字节" style="text;html=1;align=center;verticalAlign=middle;whiteSpace=wrap;rounded=0;" vertex="1" parent="1">
          <mxGeometry x="420" y="440" width="150" height="30" as="geometry" />
        </mxCell>
        <mxCell id="RwnTMnq1plcqQNdyINEq-26" value="该描述符其余部分" style="text;html=1;align=center;verticalAlign=middle;whiteSpace=wrap;rounded=0;" vertex="1" parent="1">
          <mxGeometry x="470" y="355" width="110" height="30" as="geometry" />
        </mxCell>
        <mxCell id="RwnTMnq1plcqQNdyINEq-27" value="" style="shape=curlyBracket;whiteSpace=wrap;html=1;rounded=1;labelPosition=left;verticalLabelPosition=middle;align=right;verticalAlign=middle;rotation=90;" vertex="1" parent="1">
          <mxGeometry x="841.25" y="95" width="32.5" height="450" as="geometry" />
        </mxCell>
        <mxCell id="RwnTMnq1plcqQNdyINEq-28" value="其余后续描述符" style="text;html=1;align=center;verticalAlign=middle;whiteSpace=wrap;rounded=0;" vertex="1" parent="1">
          <mxGeometry x="765" y="280" width="185" height="30" as="geometry" />
        </mxCell>
      </root>
    </mxGraphModel>
  </diagram>
</mxfile>
